<svg xmlns="http://www.w3.org/2000/svg" viewBox="0 0 2294.45 1691.68">
  <!-- generated by scripts/pipeline/05_overview_layout.ts from data/overview-reference.svg -->
  <!-- debug artifact: nothing reads this, it exists to be looked at -->
  <!-- 22 shapes over 25 subsectors; see data-members -->
  <g id="pitch">
    <path d="M 401.4 411.0 L 1892.1 411.0 L 1892.1 1376.4 L 401.4 1376.4 Z" fill="#e8f3e8" stroke="#b9d6b9" stroke-width="3"/>
  </g>
  <g id="sector-A" data-code="А">
    <path id="A1" data-code="А1" data-latin="A1" data-members="А1" data-seats="555" d="M 425.1 1449.9 L 758.0 1449.9 L 758.0 1624.9 L 425.1 1624.9 L 425.1 1449.9 Z" fill="#c9302c" stroke="#fff" stroke-width="2"/>
    <circle cx="591.55" cy="1537.4" r="6" fill="#fff" opacity=".8"/>
    <path id="A2" data-code="А2" data-latin="A2" data-members="А2" data-seats="539" d="M 758.0 1449.9 L 1047.6 1449.9 L 1047.6 1624.9 L 758.0 1624.9 L 758.0 1449.9 Z" fill="#c9302c" stroke="#fff" stroke-width="2"/>
    <circle cx="902.8" cy="1537.4" r="6" fill="#fff" opacity=".8"/>
    <path id="A3" data-code="А3" data-latin="A3" data-members="А3" data-seats="504" d="M 1047.6 1449.9 L 1338.6 1449.9 L 1338.6 1624.9 L 1047.6 1624.9 L 1047.6 1449.9 Z" fill="#c9302c" stroke="#fff" stroke-width="2"/>
    <circle cx="1193.1" cy="1537.4" r="6" fill="#fff" opacity=".8"/>
    <path id="A4" data-code="А4" data-latin="A4" data-members="А4" data-seats="226" d="M 1338.6 1449.9 L 1564.4 1449.9 L 1564.4 1624.9 L 1338.6 1624.9 L 1338.6 1449.9 Z" fill="#c9302c" stroke="#fff" stroke-width="2"/>
    <circle cx="1451.5" cy="1537.4" r="6" fill="#fff" opacity=".8"/>
    <path id="A5" data-code="А5" data-latin="A5" data-members="А5" data-seats="555" d="M 1564.4 1449.9 L 1896.0 1449.9 L 1896.0 1624.9 L 1564.4 1624.9 L 1564.4 1449.9 Z" fill="#c9302c" stroke="#fff" stroke-width="2"/>
    <circle cx="1730.2" cy="1537.4" r="6" fill="#fff" opacity=".8"/>
  </g>
  <g id="sector-B" data-code="Б">
    <path id="B6" data-code="Б6" data-latin="B6" data-members="Б6 Б6-2" data-seats="805" d="M 1971.0 1380.7 L 2283.6 1380.7 L 2254.1 1474.1 L 2170.2 1553.4 L 2044.3 1606.3 L 1896.0 1624.9 L 1896.0 1449.9 L 1971.0 1380.7 Z" fill="#c9302c" stroke="#fff" stroke-width="2"/>
    <circle cx="2063.5" cy="1485.96" r="6" fill="#fff" opacity=".8"/>
    <path id="B7" data-code="Б7" data-latin="B7" data-members="Б7" data-seats="231" d="M 1971.0 1193.3 L 2283.6 1193.3 L 2283.6 1380.7 L 1971.0 1380.7 L 1971.0 1193.3 Z" fill="#c9302c" stroke="#fff" stroke-width="2"/>
    <circle cx="2127.3" cy="1287.0" r="6" fill="#fff" opacity=".8"/>
    <path id="B8" data-code="Б8" data-latin="B8" data-members="Б8" data-seats="991" d="M 1971.0 887.3 L 2283.6 887.3 L 2283.6 1193.3 L 1971.0 1193.3 L 1971.0 887.3 Z" fill="#c9302c" stroke="#fff" stroke-width="2"/>
    <circle cx="2127.3" cy="1040.3" r="6" fill="#fff" opacity=".8"/>
    <path id="B9" data-code="Б9" data-latin="B9" data-members="Б9" data-seats="990" d="M 1971.0 585.4 L 2283.6 585.4 L 2283.6 887.3 L 1971.0 887.3 L 1971.0 585.4 Z" fill="#c9302c" stroke="#fff" stroke-width="2"/>
    <circle cx="2127.3" cy="736.35" r="6" fill="#fff" opacity=".8"/>
    <path id="B10" data-code="Б10" data-latin="B10" data-members="Б10" data-seats="561" d="M 1971.0 397.4 L 2283.6 397.4 L 2283.6 585.4 L 1971.0 585.4 L 1971.0 397.4 Z" fill="#c9302c" stroke="#fff" stroke-width="2"/>
    <circle cx="2127.3" cy="491.4" r="6" fill="#fff" opacity=".8"/>
    <path id="B11" data-code="Б11" data-latin="B11" data-members="Б10-2 Б11 Б11-2" data-seats="924" d="M 1877.9 328.9 L 1910.4 17.0 L 2053.4 46.0 L 2174.3 128.3 L 2255.4 251.7 L 2283.6 397.4 L 1971.0 397.4 L 1877.9 328.9 Z" fill="#c9302c" stroke="#fff" stroke-width="2"/>
    <circle cx="2060.36" cy="236.04" r="6" fill="#fff" opacity=".8"/>
  </g>
  <g id="sector-V" data-code="В">
    <path id="V12" data-code="В12" data-latin="V12" data-members="В12" data-seats="889" d="M 1608.8 17.0 L 1910.4 17.0 L 1877.9 328.9 L 1608.8 328.9 L 1608.8 17.0 Z" fill="#c9302c" stroke="#fff" stroke-width="2"/>
    <circle cx="1751.63" cy="169.99" r="6" fill="#fff" opacity=".8"/>
    <path id="V13" data-code="В13" data-latin="V13" data-members="В13" data-seats="1013" d="M 1306.3 17.0 L 1608.8 17.0 L 1608.8 328.9 L 1306.3 328.9 L 1306.3 17.0 Z" fill="#c9302c" stroke="#fff" stroke-width="2"/>
    <circle cx="1457.55" cy="172.95" r="6" fill="#fff" opacity=".8"/>
    <path id="V14" data-code="В14" data-latin="V14" data-members="В14" data-seats="963" d="M 1003.8 17.0 L 1306.3 17.0 L 1306.3 328.9 L 1003.8 328.9 L 1003.8 17.0 Z" fill="#c9302c" stroke="#fff" stroke-width="2"/>
    <circle cx="1155.05" cy="172.95" r="6" fill="#fff" opacity=".8"/>
    <path id="V15" data-code="В15" data-latin="V15" data-members="В15" data-seats="1013" d="M 701.1 17.0 L 1003.8 17.0 L 1003.8 328.9 L 701.1 328.9 L 701.1 17.0 Z" fill="#c9302c" stroke="#fff" stroke-width="2"/>
    <circle cx="852.45" cy="172.95" r="6" fill="#fff" opacity=".8"/>
    <path id="V16" data-code="В16" data-latin="V16" data-members="В16" data-seats="864" d="M 405.7 17.0 L 701.1 17.0 L 701.1 328.9 L 438.5 328.9 L 405.7 17.0 Z" fill="#c9302c" stroke="#fff" stroke-width="2"/>
    <circle cx="561.44" cy="169.89" r="6" fill="#fff" opacity=".8"/>
  </g>
  <g id="sector-G" data-code="Г">
    <path id="G17" data-code="Г17" data-latin="G17" data-members="Г17" data-seats="1004" d="M 438.5 328.9 L 346.9 398.9 L 34.2 398.9 L 62.5 252.8 L 143.1 128.7 L 263.6 46.0 L 405.7 17.0 L 438.5 328.9 Z" fill="#c9302c" stroke="#fff" stroke-width="2"/>
    <circle cx="256.64" cy="236.91" r="6" fill="#fff" opacity=".8"/>
    <path id="G18" data-code="Г18" data-latin="G18" data-members="Г18" data-seats="761" d="M 34.2 398.9 L 346.9 398.9 L 346.9 627.1 L 34.2 627.1 L 34.2 398.9 Z" fill="#c9302c" stroke="#fff" stroke-width="2"/>
    <circle cx="190.55" cy="513.0" r="6" fill="#fff" opacity=".8"/>
    <path id="G19" data-code="Г19" data-latin="G19" data-members="Г19" data-seats="880" d="M 34.2 627.1 L 346.9 627.1 L 346.9 892.3 L 34.2 892.3 L 34.2 627.1 Z" fill="#c9302c" stroke="#fff" stroke-width="2"/>
    <circle cx="190.55" cy="759.7" r="6" fill="#fff" opacity=".8"/>
    <path id="G20" data-code="Г20" data-latin="G20" data-members="Г20" data-seats="880" d="M 34.2 892.3 L 346.9 892.3 L 346.9 1157.5 L 34.2 1157.5 L 34.2 892.3 Z" fill="#c9302c" stroke="#fff" stroke-width="2"/>
    <circle cx="190.55" cy="1024.9" r="6" fill="#fff" opacity=".8"/>
    <path id="G21" data-code="Г21" data-latin="G21" data-members="Г21" data-seats="723" d="M 34.2 1157.5 L 346.9 1157.5 L 346.9 1382.2 L 34.2 1382.2 L 34.2 1157.5 Z" fill="#c9302c" stroke="#fff" stroke-width="2"/>
    <circle cx="190.55" cy="1269.85" r="6" fill="#fff" opacity=".8"/>
    <path id="G22" data-code="Г22" data-latin="G22" data-members="Г22" data-seats="576" d="M 346.9 1382.2 L 425.1 1449.9 L 425.1 1624.9 L 275.5 1606.3 L 148.7 1553.8 L 64.0 1475.2 L 34.2 1382.2 L 346.9 1382.2 Z" fill="#c9302c" stroke="#fff" stroke-width="2"/>
    <circle cx="256.11" cy="1486.84" r="6" fill="#fff" opacity=".8"/>
  </g>
</svg>
